<?xml version="1.0" encoding="UTF-8"?>
<svg width="400" height="400" viewBox="0 0 400 400" fill="none" xmlns="http://www.w3.org/2000/svg">
  <rect width="400" height="400" fill="#F3F4F6"/>
  <path d="M200 150C183.431 150 170 163.431 170 180C170 196.569 183.431 210 200 210C216.569 210 230 196.569 230 180C230 163.431 216.569 150 200 150ZM160 180C160 157.909 177.909 140 200 140C222.091 140 240 157.909 240 180C240 202.091 222.091 220 200 220C177.909 220 160 202.091 160 180Z" fill="#9CA3AF"/>
  <path d="M186.464 166.464C187.245 165.683 188.495 165.683 189.276 166.464L200 177.189L210.724 166.464C211.505 165.683 212.755 165.683 213.536 166.464C214.317 167.245 214.317 168.495 213.536 169.276L202.811 180L213.536 190.724C214.317 191.505 214.317 192.755 213.536 193.536C212.755 194.317 211.505 194.317 210.724 193.536L200 182.811L189.276 193.536C188.495 194.317 187.245 194.317 186.464 193.536C185.683 192.755 185.683 191.505 186.464 190.724L197.189 180L186.464 169.276C185.683 168.495 185.683 167.245 186.464 166.464Z" fill="#9CA3AF"/>
  <text x="200" y="260" text-anchor="middle" font-family="system-ui, -apple-system, sans-serif" font-size="16" fill="#6B7280">No Image Available</text>
</svg> 